<?xml version="1.0" encoding="UTF-8"?>
<svg width="499.18mm" height="541.87mm" version="1.1" viewBox="0 0 1768.7485 1919.9999" xmlns="http://www.w3.org/2000/svg">
 <g transform="translate(8.34 874.34)">
  <path d="m876.03-874.34c-82.313 0-156.83 33.367-210.78 87.309-53.942 53.942-87.306 128.46-87.306 210.77 0 50.437 12.545 126.95 34.658 208.8-66.697-52.354-132.21-93.811-178.63-113.53-75.762-32.181-157.4-30.608-228.13-2.0476-70.738 28.56-130.58 84.109-162.76 159.87-32.18 75.762-30.604 157.39-2.044 228.13 10.064 24.927 23.495 48.491 39.965 69.979-19.305 18.982-35.89 40.445-49.331 63.726-38.143 66.066-51.083 146.68-29.779 226.19 21.304 79.508 72.819 142.85 138.88 181 66.066 38.143 146.68 51.083 226.19 29.779 93.965-25.178 269.47-120.46 388.57-227.01-81.403 146.97-196.71 407.76-256.48 783.44l85.392 13.584c60.372-379.5 175.7-632.45 252.56-767.43 28.471 156.93 107.73 339.09 166.05 416.52 49.522 65.75 121.01 105.21 196.55 115.84 75.541 10.635 155.14-7.5496 220.89-57.071 65.75-49.522 105.2-121 115.83-196.54 3.7478-26.62 3.9018-53.743 0.382-80.588 26.21-6.7862 51.302-17.081 74.582-30.523 66.066-38.143 117.58-101.49 138.89-181 21.304-79.509 8.3641-160.13-29.779-226.19-38.143-66.066-101.49-117.58-180.99-138.88-48.719-13.054-125.87-20.74-210.66-20.568 67.831-50.873 124.83-103.42 155.89-143.16 50.693-64.852 70.301-144.11 61.022-219.83-9.2788-75.72-47.445-147.9-112.3-198.59-64.852-50.693-144.11-70.297-219.83-61.019-26.683 3.2699-52.922 10.143-77.94 20.491-13.338-23.56-29.776-45.133-48.784-64.142-53.942-53.943-128.46-87.309-210.78-87.309z" color="#000000" color-rendering="auto" fill="#008000" image-rendering="auto" shape-rendering="auto" solid-color="#000000" style="isolation:auto;mix-blend-mode:normal"/>
 </g>
</svg>
